<!DOCTYPE svg PUBLIC "-//W3C//DTD SVG 1.1//EN" "http://www.w3.org/Graphics/SVG/1.1/DTD/svg11.dtd">
<!-- Uploaded to: SVG Repo, www.svgrepo.com, Transformed by: SVG Repo Mixer Tools -->
<svg width="800px" height="800px" viewBox="0 0 512 512" enable-background="new 0 0 512 512" id="Layer_1" version="1.1" xml:space="preserve" xmlns="http://www.w3.org/2000/svg" xmlns:xlink="http://www.w3.org/1999/xlink" fill="#000000">
<g id="SVGRepo_bgCarrier" stroke-width="0"/>
<g id="SVGRepo_tracerCarrier" stroke-linecap="round" stroke-linejoin="round"/>
<g id="SVGRepo_iconCarrier"> <g> <g> <path d="M191.281,191.403c-0.006,0-0.013,0-0.02,0H75.664c-3.166,0-6.145-1.499-8.03-4.041 c-1.887-2.542-2.458-5.828-1.54-8.857l23.61-77.962c1.276-4.217,5.164-7.102,9.57-7.102h66.901c4.343,0,8.189,2.803,9.52,6.937 l24.886,77.341c0.452,1.14,0.7,2.383,0.7,3.684C201.281,186.926,196.805,191.403,191.281,191.403z M89.141,171.403h88.398 l-18.65-57.962h-52.194L89.141,171.403z" fill="#444B54"/> </g> <g> <path d="M133.463,268.287c-5.522,0-10-4.477-10-10v-76.883c0-5.523,4.478-10,10-10s10,4.477,10,10v76.883 C143.463,263.81,138.985,268.287,133.463,268.287z" fill="#444B54"/> </g> <g> <path d="M97.351,213.75c-5.522,0-10-4.477-10-10v-22.347c0-5.523,4.478-10,10-10s10,4.477,10,10v22.347 C107.351,209.273,102.873,213.75,97.351,213.75z" fill="#444B54"/> </g> <g> <path d="M436.336,380.117H90.361c-5.522,0-10-4.477-10-10v-111.83c0-5.523,4.478-10,10-10h345.975 c5.522,0,10,4.477,10,10v111.83C446.336,375.64,441.858,380.117,436.336,380.117z M100.361,360.117h325.975v-91.83H100.361 V360.117z" fill="#444B54"/> </g> <g> <path d="M436.336,380.117H263.349c-5.522,0-10-4.477-10-10v-111.83c0-5.523,4.478-10,10-10h172.987 c5.522,0,10,4.477,10,10v111.83C446.336,375.64,441.858,380.117,436.336,380.117z M273.349,360.117h152.987v-91.83H273.349 V360.117z" fill="#444B54"/> </g> <g> <path d="M228.207,334.687c-5.522,0-10-4.477-10-10v-21.745c0-5.523,4.478-10,10-10s10,4.477,10,10v21.745 C238.207,330.209,233.729,334.687,228.207,334.687z" fill="#444B54"/> </g> <g> <path d="M295.771,334.687c-5.522,0-10-4.477-10-10v-21.745c0-5.523,4.478-10,10-10s10,4.477,10,10v21.745 C305.771,330.209,301.294,334.687,295.771,334.687z" fill="#444B54"/> </g> <g> <path d="M90.361,418.559c-5.522,0-10-4.477-10-10v-38.442c0-5.523,4.478-10,10-10s10,4.477,10,10v38.442 C100.361,414.082,95.884,418.559,90.361,418.559z" fill="#444B54"/> </g> <g> <path d="M436.336,418.559c-5.522,0-10-4.477-10-10v-38.442c0-5.523,4.478-10,10-10s10,4.477,10,10v38.442 C446.336,414.082,441.858,418.559,436.336,418.559z" fill="#444B54"/> </g> <g> <polygon fill="#ff6347" points="191.262,181.403 75.664,181.403 99.274,103.441 166.176,103.441 "/> <path d="M191.281,191.403c-0.006,0-0.013,0-0.02,0H75.664c-3.166,0-6.145-1.499-8.03-4.041 c-1.887-2.542-2.458-5.828-1.54-8.857l23.61-77.962c1.276-4.217,5.164-7.102,9.57-7.102h66.901c4.343,0,8.189,2.803,9.52,6.937 l24.886,77.341c0.452,1.14,0.7,2.383,0.7,3.684C201.281,186.926,196.805,191.403,191.281,191.403z M89.141,171.403h88.398 l-18.65-57.962h-52.194L89.141,171.403z" fill="#444B54"/> </g> <g> <path d="M133.463,268.287c-5.522,0-10-4.477-10-10v-76.883c0-5.523,4.478-10,10-10s10,4.477,10,10v76.883 C143.463,263.81,138.985,268.287,133.463,268.287z" fill="#444B54"/> </g> <g> <path d="M97.351,213.75c-5.522,0-10-4.477-10-10v-22.347c0-5.523,4.478-10,10-10s10,4.477,10,10v22.347 C107.351,209.273,102.873,213.75,97.351,213.75z" fill="#444B54"/> </g> <g> <rect fill="#5e2ced" height="111.83" width="345.975" x="90.361" y="258.287"/> <path d="M436.336,380.117H90.361c-5.522,0-10-4.477-10-10v-111.83c0-5.523,4.478-10,10-10h345.975 c5.522,0,10,4.477,10,10v111.83C446.336,375.64,441.858,380.117,436.336,380.117z M100.361,360.117h325.975v-91.83H100.361 V360.117z" fill="#444B54"/> </g> <g> <rect fill="#ff6347" height="111.83" width="172.987" x="263.349" y="258.287"/> <path d="M436.336,380.117H263.349c-5.522,0-10-4.477-10-10v-111.83c0-5.523,4.478-10,10-10h172.987 c5.522,0,10,4.477,10,10v111.83C446.336,375.64,441.858,380.117,436.336,380.117z M273.349,360.117h152.987v-91.83H273.349 V360.117z" fill="#444B54"/> </g> <g> <path d="M228.207,334.687c-5.522,0-10-4.477-10-10v-21.745c0-5.523,4.478-10,10-10s10,4.477,10,10v21.745 C238.207,330.209,233.729,334.687,228.207,334.687z" fill="#444B54"/> </g> <g> <path d="M295.771,334.687c-5.522,0-10-4.477-10-10v-21.745c0-5.523,4.478-10,10-10s10,4.477,10,10v21.745 C305.771,330.209,301.294,334.687,295.771,334.687z" fill="#444B54"/> </g> <g> <path d="M90.361,418.559c-5.522,0-10-4.477-10-10v-38.442c0-5.523,4.478-10,10-10s10,4.477,10,10v38.442 C100.361,414.082,95.884,418.559,90.361,418.559z" fill="#444B54"/> </g> <g> <path d="M436.336,418.559c-5.522,0-10-4.477-10-10v-38.442c0-5.523,4.478-10,10-10s10,4.477,10,10v38.442 C446.336,414.082,441.858,418.559,436.336,418.559z" fill="#444B54"/> </g> </g> </g>
</svg>