<svg id="Layer_1" data-name="Layer 1" xmlns="http://www.w3.org/2000/svg" viewBox="0 0 122.88 105.69"><title>strategist</title><path d="M103.64,16c-.51-.09-1-.15-1.5-.19a14.23,14.23,0,0,0-10.8,3.42,22.56,22.56,0,0,0-6.46,10.59,32.07,32.07,0,0,0-1.15,5.48l.13,0a7.62,7.62,0,1,1-9.55,5.49,1.68,1.68,0,0,1,.09-.32,7.63,7.63,0,0,1,3.51-4.46,7.94,7.94,0,0,1,.88-.43,38.53,38.53,0,0,1,1.44-7.21,27.41,27.41,0,0,1,8-12.87A18.92,18.92,0,0,1,102.54,11c.51,0,1,.11,1.56.19l-3.49-4.6,3.86-2.94,9,11.82-12.34,8L98.45,19.4,103.64,16ZM46.72,66.57l2-13.94-1.39-1.56a2.44,2.44,0,0,1-.41-2.48c.75-1.53,2.31-1.24,3.76-1.24s3.4-.3,3.88,1.66A2.67,2.67,0,0,1,54,51.07l-1.38,1.56,1.92,13.72,5.7-18.52c2.72.36,5.51.85,8.36,1.51a4.54,4.54,0,0,1,2.54,1.45,5,5,0,0,1,.94,1.11l9.09,12.8L92.64,50.61c2.28-2.77,3.76-3.56,5.81-2.77,2.33.89,7.41,3.33,7.82,5.53a2.41,2.41,0,0,1-.22,1.34,11.67,11.67,0,0,1-1.45,2.09L87.44,79.42c-3.34,4.85-9.09,5.15-12,1.53l-4.61-6.74L69.71,96.79c-.23,4.88-3.76,8.9-8.34,8.9H39c-4.24,0-7.58-3.44-8.23-7.84A4.91,4.91,0,0,1,28.15,100c-.58.11-1.52-.52-2.14-.75L3.73,82.38C-.82,79.26-1.1,73.87,2.3,71.09l27-20.49a3.72,3.72,0,0,1,.8-.6l.08-.07.33-.16a6.37,6.37,0,0,1,1.25-.43A76.74,76.74,0,0,1,40.8,47.7l5.92,18.87ZM30.18,87.28,29.23,67l-11.7,9.51L30.18,87.28ZM49.79,13.73a15.7,15.7,0,1,1-15.7,15.7,15.7,15.7,0,0,1,15.7-15.7Zm57.44,23.36,4.51-2.56L109.17,30l4.23-2.4L116,32.12l4.52-2.56,2.4,4.23-4.51,2.56,2.56,4.52-4.22,2.39-2.57-4.51-4.51,2.57-2.4-4.23ZM69.86,9.48l4.52-2.56L71.81,2.4,76,0,78.6,4.51,83.12,2l2.4,4.22L81,8.74l2.56,4.51-4.23,2.4-2.56-4.51-4.52,2.57-2.4-4.23ZM84.1,41.3A2.71,2.71,0,0,0,82.45,40h0A2.72,2.72,0,0,0,79.06,42h0a2.76,2.76,0,0,0,.27,2.1A2.73,2.73,0,0,0,81,45.34a2.76,2.76,0,0,0,3.11-4Z"/></svg>